<?xml version="1.0" standalone="no"?>
<!DOCTYPE svg PUBLIC "-//W3C//DTD SVG 20010904//EN"
 "http://www.w3.org/TR/2001/REC-SVG-20010904/DTD/svg10.dtd">
<svg version="1.0" xmlns="http://www.w3.org/2000/svg"
 width="139.000000pt" height="140.000000pt" viewBox="0 0 139.000000 140.000000"
 preserveAspectRatio="xMidYMid meet">
<metadata>
Created by potrace 1.16, written by Peter Selinger 2001-2019
</metadata>
<g transform="translate(0.000000,140.000000) scale(0.100000,-0.100000)"
fill="#000000" stroke="none">
<path d="M299 1343 c-64 -85 -129 -216 -129 -261 0 -20 -5 -54 -11 -76 -6 -22
-7 -42 -2 -47 5 -5 7 -24 5 -41 l-4 -33 -76 1 -77 1 74 -6 c45 -4 76 -11 78
-18 4 -10 -15 -11 -76 -6 l-81 6 0 -43 c0 -32 3 -41 14 -37 7 3 18 1 24 -5 8
-8 10 2 7 33 l-4 44 20 -37 c21 -41 40 -46 84 -26 21 10 28 9 35 -2 11 -18 2
-33 -17 -26 -8 3 -25 -2 -38 -12 -17 -14 -21 -22 -13 -35 5 -9 18 -17 28 -17
24 0 26 -16 4 -28 -28 -16 -5 -32 46 -32 45 0 49 -2 59 -31 l11 -31 -130 4
c-71 2 -127 1 -124 -2 3 -2 62 -7 132 -10 l127 -5 3 -30 c2 -16 10 -38 18 -49
17 -24 19 -50 3 -40 -8 4 -9 0 -4 -15 7 -23 -5 -27 -36 -11 -27 15 -24 6 12
-35 17 -19 27 -35 23 -35 -4 0 1 -7 12 -15 10 -8 29 -15 42 -15 34 0 26 -27
-12 -40 -31 -10 -80 -50 -61 -50 4 0 2 -7 -5 -15 -6 -8 -9 -19 -5 -26 5 -8 1
-9 -16 -4 -22 7 -23 7 -9 -10 14 -17 14 -17 -15 -3 -22 12 -34 13 -47 5 -12
-8 -27 -7 -56 2 -23 8 -48 10 -59 6 -10 -5 -25 -9 -33 -9 -12 -1 -16 -19 -18
-89 l-3 -87 236 0 c129 0 235 3 235 6 0 3 -9 19 -21 36 -12 16 -19 31 -17 34
9 9 38 -8 38 -22 0 -27 1 -29 23 -41 34 -19 95 -16 100 5 4 16 5 16 6 0 1 -15
10 -18 50 -18 l50 0 -23 40 c-24 42 -68 94 -107 126 -20 16 -30 31 -57 87 -5
10 98 -31 127 -51 13 -9 29 -20 35 -23 76 -40 97 -49 110 -49 9 0 16 -4 16 -8
0 -5 11 -14 24 -20 20 -9 25 -20 28 -54 l3 -43 86 -3 86 -3 -4 28 -4 28 23
-27 24 -28 162 0 162 0 0 110 0 111 -25 -18 c-13 -10 -25 -23 -25 -29 0 -26
-44 -21 -110 12 -38 19 -75 34 -83 34 -8 0 -20 7 -27 15 -15 18 -28 16 143 15
l127 -1 0 103 c0 105 -7 115 -31 43 -14 -40 -14 -40 -17 53 l-3 94 -37 -6
c-20 -3 -68 -2 -107 2 -61 6 -70 10 -71 27 -4 68 -3 68 -19 55 -8 -7 -13 -15
-11 -19 3 -4 -5 -8 -16 -8 -12 -1 -25 -8 -29 -15 -7 -10 -9 -8 -9 5 0 10 -5
15 -10 12 -5 -3 -10 2 -10 12 -1 25 -24 53 -44 53 -9 0 -25 -9 -37 -21 -28
-28 -76 -44 -92 -31 -22 17 -77 25 -92 12 -21 -17 -10 -28 22 -22 25 4 27 3
13 -11 -8 -9 -24 -18 -35 -20 -11 -1 -35 -10 -54 -20 -19 -9 -39 -17 -46 -17
-23 0 -45 -37 -45 -74 0 -27 -3 -35 -12 -29 -7 4 -23 8 -35 8 -13 0 -29 10
-38 20 -15 20 -15 20 -30 1 -9 -12 -15 -15 -15 -7 0 11 -3 11 -15 1 -9 -7 -18
-10 -22 -6 -3 3 -1 6 5 6 18 0 14 18 -5 22 -9 2 -22 19 -29 38 l-12 35 1 -33
c0 -44 -11 -53 -19 -14 -5 26 -9 29 -24 20 -36 -23 -64 13 -103 133 -15 46
-15 47 9 47 14 0 26 -8 30 -20 3 -11 12 -17 20 -14 8 3 15 0 16 -7 0 -7 2 -16
2 -22 3 -19 25 -50 31 -43 3 3 2 45 -3 94 -11 95 -6 118 29 149 12 11 19 15
16 8 -7 -11 53 -53 77 -53 7 0 24 -9 37 -21 34 -30 126 -22 168 14 17 14 27
28 23 32 -4 4 2 5 14 1 16 -5 23 1 38 35 14 31 16 49 10 68 l-9 25 -119 -2
c-76 -2 -132 -9 -154 -18 -19 -8 -35 -14 -37 -14 -1 0 -1 31 0 68 2 58 9 80
41 142 53 100 105 150 159 151 22 1 44 1 50 0 5 -2 47 -7 93 -12 130 -15 183
-53 186 -133 0 -25 3 -46 6 -46 3 0 14 -15 24 -34 20 -37 15 -56 -13 -56 -28
0 -104 -36 -134 -64 -24 -22 -26 -28 -16 -53 6 -15 20 -41 33 -58 12 -16 28
-45 35 -62 8 -18 20 -33 28 -33 11 0 11 4 3 20 -9 17 -7 20 15 21 27 2 32 3
55 12 8 3 27 8 43 11 24 6 27 11 27 46 0 28 7 45 24 62 62 60 98 387 50 468
l-20 35 -401 3 -400 2 -44 -57z m624 -888 c-8 -21 -59 -42 -120 -50 -55 -7
-68 -19 -33 -30 11 -3 29 -18 40 -32 19 -24 19 -28 5 -36 -9 -5 -25 -7 -36 -4
-10 3 -19 1 -19 -4 0 -12 -61 50 -84 85 -15 24 -16 32 -5 53 7 13 19 21 26 19
7 -3 15 0 19 6 5 7 33 9 83 5 42 -3 85 -2 96 3 25 9 36 4 28 -15z"/>
</g>
</svg>
